<svg width="36" height="36" viewBox="0 0 36 36" fill="none" xmlns="http://www.w3.org/2000/svg">
<path d="M18.2039 3.37502C9.97877 3.26392 3.26392 9.97877 3.37502 18.2039C3.4847 26.0923 9.90775 32.5153 17.7961 32.625C26.0227 32.7375 32.7361 26.0227 32.6236 17.7975C32.5153 9.90775 26.0923 3.4847 18.2039 3.37502ZM17.9452 14.0703C17.9599 13.9859 17.9761 13.9015 17.9951 13.8178C18.1727 12.9967 18.5684 12.2386 19.1405 11.6234C20.0468 10.658 21.3314 10.125 22.7581 10.125C23.3583 10.1225 23.9544 10.2239 24.5201 10.4245C25.2233 10.6749 25.8565 11.0895 26.3672 11.6339C27.1184 12.4459 27.5656 13.4928 27.6328 14.5969C27.6523 14.8637 27.6523 15.1316 27.6328 15.3985C27.5787 16.1547 27.3831 16.894 27.0563 17.5781C27.0206 17.6527 26.9834 17.7265 26.9445 17.7996C26.8664 17.9452 26.7828 18.0879 26.6928 18.2257C26.5136 18.5009 26.3105 18.7597 26.086 18.9992C25.1635 19.9835 23.9822 20.527 22.7595 20.527C22.301 20.5267 21.8456 20.4512 21.4116 20.3035C21.2658 20.2539 21.1226 20.1969 20.9827 20.1326C20.3967 19.8592 19.8696 19.4742 19.4309 18.9992C18.5177 18.0087 17.9717 16.7351 17.884 15.3907C17.8713 15.2088 17.8671 15.0288 17.8713 14.8507C17.8768 14.5896 17.9015 14.3292 17.9452 14.0717V14.0703ZM7.41728 15.7817C7.4515 15.28 7.57533 14.7884 7.78291 14.3304C7.84146 14.2028 7.90671 14.0784 7.97838 13.9578C8.12171 13.7158 8.29125 13.4904 8.48392 13.2856C8.76935 12.9811 9.10168 12.7242 9.4683 12.5248C9.6514 12.4247 9.84206 12.3391 10.0385 12.2688C10.7914 12.0055 11.6008 11.9475 12.3835 12.1008C13.2128 12.2612 13.9703 12.6796 14.5477 13.2961C15.2328 14.0357 15.619 15.0034 15.6312 16.0116C15.6347 16.1599 15.6312 16.309 15.6206 16.4602C15.5777 17.0391 15.435 17.6062 15.1988 18.1364C15.0857 18.3917 14.9509 18.6368 14.7959 18.8691C14.4978 19.3195 14.1227 19.7139 13.6878 20.0342C13.5823 20.1094 13.4726 20.1797 13.3594 20.25C13.1367 20.3826 12.9011 20.4922 12.6563 20.577C12.2901 20.7049 11.9051 20.7705 11.5172 20.771C11.4518 20.771 11.3864 20.771 11.3217 20.7654C11.1926 20.7583 11.0639 20.7438 10.9364 20.7218C10.8096 20.6997 10.684 20.6709 10.5603 20.6353C10.3744 20.5816 10.1929 20.5137 10.0174 20.4321C9.95838 20.4047 9.90072 20.3759 9.84306 20.3456C8.57744 19.6784 7.6233 18.2953 7.43627 16.681C7.42783 16.6071 7.4208 16.5333 7.41588 16.4588C7.4 16.2333 7.40047 16.007 7.41728 15.7817ZM11.2085 28.3395C9.33643 27.1055 7.83186 25.3893 6.85338 23.3719C6.82142 23.3074 6.81542 23.2331 6.83661 23.1643C6.8578 23.0955 6.90457 23.0374 6.96728 23.002C8.27369 22.2673 9.9422 21.8672 11.5186 21.8672C12.7139 21.8672 13.6772 22.0078 14.5203 22.2806C14.6158 22.3121 14.7012 22.3686 14.7675 22.4443C14.8338 22.52 14.8786 22.6121 14.8972 22.711C14.9158 22.8099 14.9075 22.9119 14.8733 23.0065C14.839 23.1011 14.78 23.1848 14.7024 23.2488C13.0606 24.5848 12.0024 26.2399 11.5053 28.2235C11.4978 28.2538 11.4832 28.2819 11.4626 28.3054C11.442 28.3289 11.4161 28.3471 11.387 28.3585C11.3579 28.3699 11.3265 28.3741 11.2954 28.3708C11.2644 28.3675 11.2346 28.3567 11.2085 28.3395ZM18 30.375C16.417 30.3766 14.8485 30.0729 13.3805 29.4806C13.3205 29.4559 13.2709 29.4111 13.2402 29.354C13.2094 29.2968 13.1994 29.2308 13.2117 29.167C13.2399 29.0229 13.2708 28.8914 13.2982 28.7817C13.7988 26.7827 15.0392 25.1255 16.8842 23.9878C18.5217 22.9788 20.6107 22.4234 22.7567 22.4234C24.9476 22.4234 26.9754 22.9563 28.6263 23.9639C28.6684 23.9902 28.6986 24.0319 28.7105 24.08C28.7224 24.1282 28.7152 24.1791 28.6903 24.222C27.6016 26.0924 26.0416 27.6448 24.1659 28.7244C22.2902 29.804 20.1642 30.3731 18 30.375Z" fill="#033563"/>
<path d="M15.6213 16.4567C15.6318 16.3055 15.6354 16.1564 15.6318 16.0081C15.6356 16.1557 15.6321 16.3053 15.6213 16.4567ZM7.43763 16.6775C7.62466 18.2946 8.58091 19.6749 9.84442 20.3421C8.5781 19.6749 7.62466 18.2918 7.43763 16.6775ZM17.8833 15.3985C17.8706 15.2166 17.8664 15.0366 17.8706 14.8585C17.8664 15.0342 17.8706 15.2142 17.8833 15.3985Z" fill="#033563"/>
</svg>
